<?xml version="1.0" standalone="no"?>
<svg viewBox="0 0 200 200" xmlns="http://www.w3.org/2000/svg">
  <path fill="#F5DDEB" d="M43.3,-54.4C51.2,-53.9,49.3,-34.7,53.8,-18.1C58.2,-1.6,69,12.1,63.7,18.4C58.5,24.7,37.3,23.4,24,34.7C10.7,45.9,5.4,69.6,-1.1,71.2C-7.6,72.7,-15.3,52.1,-23.5,39.3C-31.8,26.4,-40.6,21.2,-51.1,11.3C-61.5,1.4,-73.6,-13.2,-73.6,-27.3C-73.6,-41.3,-61.6,-54.8,-47.4,-53.3C-33.1,-51.8,-16.6,-35.2,0.6,-36C17.7,-36.7,35.4,-54.9,43.3,-54.4Z" transform="translate(100 100)" />
</svg>
